<?xml version="1.0" standalone="no"?>
<!DOCTYPE svg PUBLIC "-//W3C//DTD SVG 20010904//EN"
 "http://www.w3.org/TR/2001/REC-SVG-20010904/DTD/svg10.dtd">
<svg version="1.0" xmlns="http://www.w3.org/2000/svg"
 width="1019.000000pt" height="702.000000pt" viewBox="0 0 1019.000000 702.000000"
 preserveAspectRatio="xMidYMid meet">
<metadata>
Created by potrace 1.16, written by Peter Selinger 2001-2019
</metadata>
<g transform="translate(0.000000,702.000000) scale(0.100000,-0.100000)"
fill="#FFFFFF" stroke="none">
<path d="M1100 6961 c-102 -13 -186 -68 -234 -154 -36 -66 -47 -113 -56 -247
-5 -63 -13 -128 -19 -143 -6 -16 -11 -88 -11 -160 0 -73 -5 -159 -10 -192 -6
-36 -10 -307 -10 -678 0 -694 6 -637 -76 -727 -70 -76 -164 -192 -179 -219 -7
-14 -22 -35 -34 -45 -12 -11 -21 -25 -21 -31 0 -7 -6 -18 -14 -24 -8 -7 -22
-26 -31 -44 -9 -18 -24 -45 -35 -62 -19 -31 -126 -245 -140 -280 -4 -11 -15
-37 -24 -58 -9 -21 -16 -46 -16 -55 0 -10 -4 -22 -9 -28 -5 -5 -16 -36 -26
-69 -9 -33 -23 -75 -31 -93 -8 -18 -14 -42 -14 -54 0 -12 -4 -35 -9 -52 -35
-119 -46 -188 -65 -426 -29 -350 -9 -718 49 -910 9 -30 20 -68 25 -85 11 -40
55 -157 68 -181 6 -10 25 -48 42 -84 17 -36 44 -85 61 -110 16 -25 32 -52 36
-60 12 -26 85 -122 160 -210 110 -131 284 -294 464 -435 86 -68 336 -247 377
-271 17 -10 32 -22 32 -25 0 -4 25 -20 55 -34 30 -15 59 -33 66 -41 6 -8 20
-14 30 -14 10 0 20 -4 24 -9 8 -14 216 -112 335 -159 14 -5 39 -15 55 -22 17
-7 55 -20 85 -31 30 -10 100 -34 155 -54 55 -19 109 -35 120 -35 12 0 25 -4
30 -9 10 -10 56 -23 143 -41 24 -6 48 -13 55 -17 6 -4 29 -10 52 -14 22 -4 72
-15 110 -24 39 -10 93 -21 120 -25 60 -10 144 -27 203 -40 23 -6 62 -10 86
-10 25 0 57 -5 73 -11 28 -12 92 -20 306 -38 64 -5 123 -13 130 -18 12 -8 90
-13 467 -32 118 -6 251 -15 294 -21 105 -13 1397 -13 1502 0 43 6 176 15 294
21 377 19 455 24 467 32 7 5 66 13 130 18 214 18 278 26 306 38 16 6 48 11 73
11 24 0 63 4 86 10 59 13 143 30 203 40 28 4 82 15 120 25 39 9 88 20 110 24
23 4 46 10 52 14 7 4 31 11 55 17 87 18 133 31 143 41 5 5 18 9 30 9 11 0 65
16 120 35 55 20 125 44 155 54 30 11 69 24 85 31 17 7 41 17 55 22 119 47 327
145 335 159 4 5 14 9 24 9 10 0 24 6 30 14 7 8 36 26 66 41 30 14 55 30 55 34
0 3 15 15 33 25 40 24 290 203 376 271 180 141 354 304 464 435 75 88 148 184
160 210 4 8 20 35 36 60 17 25 44 74 61 110 17 36 36 74 42 84 13 24 57 141
68 181 5 17 16 55 25 85 58 192 78 560 49 910 -19 238 -30 307 -65 426 -5 17
-9 40 -9 52 0 12 -6 36 -14 54 -8 18 -22 60 -31 93 -10 33 -21 64 -26 70 -5 5
-9 17 -9 27 0 9 -7 34 -16 55 -9 21 -20 47 -24 58 -14 35 -121 249 -140 280
-11 17 -26 44 -35 62 -9 18 -23 37 -31 44 -8 6 -14 17 -14 24 0 6 -9 20 -21
31 -12 10 -27 31 -34 45 -15 27 -109 143 -179 219 -82 90 -76 33 -76 727 0
371 -4 642 -10 678 -5 33 -10 119 -10 192 0 72 -5 144 -11 160 -6 15 -14 80
-19 143 -9 134 -20 181 -56 247 -34 61 -71 95 -141 128 -50 23 -71 26 -202 31
-165 6 -379 -8 -491 -31 -170 -36 -244 -56 -256 -68 -4 -4 -17 -7 -29 -7 -12
0 -30 -7 -41 -15 -10 -8 -25 -15 -33 -15 -20 0 -220 -99 -257 -127 -17 -13
-34 -23 -38 -23 -22 0 -209 -151 -316 -255 -189 -185 -224 -195 -373 -119 -16
8 -37 14 -47 14 -10 0 -22 5 -25 10 -3 6 -18 10 -33 10 -15 0 -36 7 -46 15
-11 8 -28 15 -38 15 -10 0 -30 7 -43 16 -13 9 -29 13 -35 9 -6 -4 -21 0 -33 8
-12 8 -38 17 -57 20 -19 2 -60 13 -90 22 -30 9 -73 21 -95 25 -45 10 -123 27
-175 40 -114 27 -185 39 -353 59 -49 6 -94 14 -100 18 -7 4 -55 10 -107 14
-52 4 -165 12 -250 18 -497 35 -541 35 -1300 -18 -52 -3 -100 -10 -107 -14 -6
-4 -51 -12 -100 -18 -168 -20 -239 -32 -353 -59 -52 -13 -130 -30 -175 -40
-22 -4 -65 -16 -95 -25 -30 -9 -71 -20 -90 -22 -19 -3 -45 -12 -57 -20 -12 -8
-27 -12 -33 -8 -6 4 -22 0 -35 -9 -13 -9 -33 -16 -43 -16 -10 0 -27 -7 -38
-15 -10 -8 -31 -15 -46 -15 -15 0 -30 -4 -33 -10 -3 -5 -15 -10 -25 -10 -10 0
-31 -6 -47 -14 -149 -76 -184 -66 -373 119 -107 104 -294 255 -316 255 -4 0
-21 10 -38 23 -37 28 -237 127 -257 127 -8 0 -23 7 -33 15 -11 8 -29 15 -41
15 -12 0 -25 3 -29 7 -7 8 -76 29 -141 43 -149 33 -203 42 -305 50 -131 10
-329 10 -410 1z"/>
</g>
</svg>
